<svg width="90" height="86" viewBox="0 0 90 86" fill="none" xmlns="http://www.w3.org/2000/svg">
<path d="M60.8865 71.0967L3.40498 31.446C-2.42007 27.428 -0.439934 19.0621 6.82375 17.0948L67.9163 0.513558C69.2104 0.0465932 70.5971 -0.104993 71.9618 0.0713929C73.3261 0.247778 74.6289 0.747041 75.7618 1.52775C76.8945 2.30846 77.8249 3.34809 78.4754 4.56037C79.1258 5.77263 79.4779 7.12259 79.5023 8.49817L75.8817 64.7269C75.4523 71.4011 66.7115 75.1146 60.8865 71.0967Z" fill="#FF9900"/>
<path d="M42.6552 80.8851L8.79107 14.6598C8.01696 13.1448 7.67633 11.4453 7.80671 9.74899C7.93708 8.05264 8.53343 6.42525 9.52993 5.0463C10.5265 3.66736 11.8845 2.59039 13.4542 1.9342C15.0239 1.278 16.7443 1.06806 18.4258 1.32756L81.1845 11.0135C82.6292 11.2366 84.0006 11.7994 85.1858 12.6556C86.3707 13.512 87.3354 14.6373 88.0009 15.9392C88.6661 17.241 89.0131 18.6822 89.0128 20.1442C89.0124 21.6062 88.6651 23.0473 87.9996 24.349L59.0891 80.8883C58.3127 82.3991 57.1349 83.6666 55.685 84.5513C54.2352 85.4362 52.5697 85.904 50.8712 85.9037C49.1727 85.9034 47.5072 85.435 46.0577 84.5497C44.6081 83.6641 43.431 82.3962 42.6552 80.8851Z" fill="#0300A2"/>
<path d="M79.3485 10.7282L48.0637 5.89966L9.65295 16.329L24.9846 46.3225L60.8865 71.0966C61.6785 71.6371 62.5497 72.0511 63.469 72.3238L77.1056 45.6561L79.3485 10.7282Z" fill="#3461FD"/>
</svg>
